<svg width="32" height="32" viewBox="0 0 139 139" xmlns="http://www.w3.org/2000/svg"><path fill="none" d="M0 0h139v139H0V0z"/><path fill="#777" d="M24.57 25.59C35.24 14.42 50.25 7.61 65.67 6.83c0 5.56.02 11.12-.01 16.68-12.19.95-23.89 6.95-31.61 16.46-5.93 7.14-9.43 16.13-10.2 25.36-5.58.02-11.15.03-16.73-.01.85-14.76 7.04-29.2 17.45-39.73zM72.31 6.87c15.67.68 30.9 7.79 41.62 19.22 10.13 10.49 16.14 24.71 16.95 39.24-5.57.02-11.15.02-16.72 0-.95-12.29-7.05-24.1-16.7-31.81-7.1-5.82-16-9.24-25.12-10-.03-5.55.01-11.1-.03-16.65z"/><path fill="#AAA" d="M42.42 39.04c6.77-5.99 15.55-9.7 24.61-10.09 10.37-.59 20.81 3.19 28.55 10.09-2.51 2.53-5.03 5.06-7.56 7.57-10.52-9.25-27.5-9.25-38.02 0-2.54-2.51-5.07-5.03-7.58-7.57zM39.35 42.08c2.55 2.52 5.14 5.01 7.59 7.62-9.29 10.49-9.21 27.49.01 38-2.54 2.51-5.01 5.09-7.63 7.52-6.29-7.2-10.07-16.6-10.07-26.2-.17-9.84 3.62-19.57 10.1-26.94zM42.42 98.29c2.51-2.53 5.03-5.06 7.57-7.56 10.53 9.25 27.51 9.25 38.04 0 2.53 2.5 5.04 5.03 7.55 7.55-7.24 6.47-16.86 10.21-26.59 10.15-9.72.06-19.32-3.7-26.57-10.14z"/><path fill="#777" d="M7.13 72.02c5.57-.04 11.14-.02 16.72-.01.93 12.22 6.98 23.96 16.53 31.68 7.12 5.91 16.1 9.36 25.3 10.16-.02 5.57.02 11.14-.03 16.71-15-.86-29.66-7.26-40.25-17.97C14.51 101.98 7.97 87.18 7.13 72.02zM114.15 72.02c5.58-.03 11.16-.03 16.74 0-.85 14.93-7.18 29.52-17.79 40.08-10.63 11-25.49 17.58-40.73 18.47-.09-5.57-.02-11.13-.04-16.7 12.29-1.02 24.1-7.06 31.82-16.73 5.82-7.09 9.25-16 10-25.12z"/></svg>